<?xml version="1.0" encoding="UTF-8"?>
<svg width="216px" height="34px" viewBox="0 0 216 34" version="1.1" xmlns="http://www.w3.org/2000/svg" xmlns:xlink="http://www.w3.org/1999/xlink">
    <!-- Generator: Sketch 51.2 (57519) - http://www.bohemiancoding.com/sketch -->
    <title>logo-positronx-white</title>
    <desc>Created with Sketch.</desc>
    <defs></defs>
    <g id="Page-1" stroke="none" stroke-width="1" fill="none" fill-rule="evenodd">
        <g id="logo-positronx-white" fill="#ffffff" fill-rule="nonzero">
            <path d="M42.684094,11.5899796 C43.7132677,10.4360575 44.8385846,9.5914201 46.0600786,9.05604187 C47.2815727,8.52066364 48.5888115,8.25297854 49.9818345,8.25297854 C52.4144269,8.25297854 54.4935344,9.12620372 56.2192196,10.8726803 C57.9449048,12.6191568 58.8077344,14.7242532 58.8077344,17.1880327 C58.8077344,19.6933949 57.9501025,21.8244801 56.234813,23.5813524 C54.5195236,25.3382246 52.4560093,26.2166476 50.0442084,26.2166476 C48.6823725,26.2166476 47.4297102,25.9385669 46.2861839,25.3823973 C45.1426575,24.8262277 44.1083015,23.9815902 43.1830848,22.8484596 L43.1830848,32.3916588 L41,32.3917186 L41,16.190051 C41.1871225,14.6826755 41.7484815,13.1493336 42.684094,11.5899796 Z M49.794713,10.358096 C47.9026967,10.358096 46.3017839,11.0234104 44.9919264,12.3540592 C43.682069,13.684708 43.0271501,15.3427963 43.0271501,17.3283738 C43.0271501,18.6174399 43.3182252,19.784339 43.9003841,20.8291062 C44.4825429,21.8738734 45.3141859,22.7003187 46.3953381,23.3084668 C47.4764902,23.9166149 48.6199994,24.2206843 49.8258999,24.2206843 C51.011009,24.2206843 52.1259304,23.9166149 53.1706976,23.3084668 C54.2154649,22.7003187 55.0471079,21.8426868 55.6656517,20.7355454 C56.2841954,19.628404 56.5934627,18.4719005 56.5934627,17.266 C56.5934627,16.0393081 56.2867943,14.8854034 55.6734484,13.8042513 C55.0601025,12.7230991 54.2362561,11.8784617 53.2018846,11.2703136 C52.167513,10.6621655 51.0318005,10.358096 49.794713,10.358096 Z M71.298098,8.19060469 C73.9282085,8.19060469 76.1112715,9.1417964 77.8473523,11.0442084 C79.4171021,12.7906849 80.2019652,14.8541992 80.2019652,17.234813 C80.2019652,19.6154269 79.3703222,21.6971334 77.7070112,23.4799949 C76.0437002,25.2628563 73.9074171,26.1542737 71.298098,26.1542737 C68.6783832,26.1542737 66.5395013,25.2628563 64.8813881,23.4799949 C63.223275,21.6971334 62.3942308,19.6154269 62.3942308,17.234813 C62.3942308,14.8645949 63.1790939,12.8062784 64.7488437,11.0598018 C66.4849245,9.14699417 68.6679875,8.19060469 71.298098,8.19060469 Z M71.298098,10.3425025 C69.4788516,10.3425025 67.9143232,11.0182125 66.6044657,12.3696527 C65.2946083,13.7210929 64.6396894,15.3531923 64.6396894,17.266 C64.6396894,18.5030875 64.9385611,19.6595911 65.5363135,20.7355454 C66.1340659,21.8114997 66.942319,22.637945 67.961097,23.214906 C68.979875,23.791867 70.0921975,24.0803432 71.298098,24.0803432 C72.5247899,24.0803432 73.6449091,23.791867 74.6584892,23.214906 C75.6720694,22.637945 76.4751247,21.8114997 77.0676792,20.7355454 C77.6602337,19.6595911 77.9565066,18.5030875 77.9565066,17.266 C77.9565066,15.3531923 77.3015877,13.7210929 75.9917303,12.3696527 C74.6818729,11.0182125 73.1173444,10.3425025 71.298098,10.3425025 Z M92.8482634,10.4984372 L91.4448518,11.9642227 C90.2597427,10.8206963 89.1110358,10.2489418 87.9986965,10.2489418 C87.2813937,10.2489418 86.6680569,10.4828414 86.1586679,10.9506476 C85.649279,11.4184538 85.3945883,11.9746151 85.3945883,12.6191481 C85.3945883,13.1597242 85.6076968,13.6795011 86.0339202,14.1784944 C86.449748,14.7086747 87.3281709,15.3168137 88.6692154,16.0029295 C90.3117351,16.8449807 91.4240576,17.6610304 92.0062165,18.4511031 C92.5779796,19.2515716 92.8638569,20.1507856 92.8638569,21.1487722 C92.8638569,22.5417951 92.3726677,23.7242876 91.3902747,24.6962849 C90.4078816,25.6682823 89.1786093,26.1542737 87.7024208,26.1542737 C86.7148298,26.1542737 85.7714348,25.9437641 84.8722073,25.5227385 C83.9729798,25.1017129 83.2322977,24.5117661 82.6501388,23.7528805 L84.037957,22.1779407 C85.1606919,23.4462154 86.350981,24.0803432 87.60886,24.0803432 C88.4820983,24.0803432 89.2279781,23.7970648 89.8465219,23.2304995 C90.4650657,22.6639341 90.7743329,22.0012186 90.7743329,21.242333 C90.7743329,20.6081956 90.5716199,20.0468366 90.1661879,19.558239 C89.7607558,19.0696414 88.8407507,18.4563046 87.406145,17.7182104 C85.8571866,16.9385334 84.8072373,16.1536703 84.2562655,15.3635975 C83.694898,14.5943162 83.4142185,13.7106955 83.4142185,12.7127089 C83.4142185,11.4132471 83.8586278,10.3347101 84.7474596,9.47706536 C85.6362914,8.61942062 86.7512128,8.19060469 88.0922573,8.19060469 C89.6620071,8.19060469 91.2473266,8.95987449 92.8482634,10.4984372 Z M97.4951153,2 C97.9941086,2 98.4229246,2.17672414 98.781576,2.53017773 C99.1402274,2.88363132 99.3195505,3.30984837 99.3195505,3.80884167 C99.3195505,4.30783497 99.1402274,4.73665091 98.781576,5.09530234 C98.4229246,5.45395378 97.9941086,5.63327681 97.4951153,5.63327681 C96.996122,5.63327681 96.569905,5.45395378 96.2164514,5.09530234 C95.8629978,4.73665091 95.6862737,4.30783497 95.6862737,3.80884167 C95.6862737,3.30984837 95.8629978,2.88363132 96.2164514,2.53017773 C96.569905,2.17672414 96.996122,2 97.4951153,2 Z M96.4035729,9.03265167 L98.6022512,9.03265167 L98.6022512,26.1386802 L96.4035729,26.1386802 L96.4035729,9.03265167 Z M109.31496,23.7216935 C109.595644,24.5013706 109.824346,25.1095095 110.001072,25.5461287 C108.857546,25.9827478 107.838783,26.1854608 106.944754,26.1542737 C105.260651,26.0607125 103.930022,25.1874873 102.952827,23.534572 C102.360273,22.4950026 102.074395,21.3514934 102.095187,20.1040102 L102.095187,2.34305618 L104.309459,2.34305618 L104.309459,10.6075914 L108.379352,10.6075914 L108.379352,12.4944004 L104.325052,12.4944004 L104.325052,19.7297671 C104.262678,21.5178264 104.865619,22.8952352 106.133894,23.8620347 C107.173463,24.3506323 108.233808,24.3038524 109.31496,23.7216935 Z M112.667555,26.1074933 L112.667555,16.2524249 C112.833886,15.2232512 113.072983,14.3864104 113.384854,13.7418774 C114.112552,11.9538181 115.089733,10.6439803 116.316425,9.81232481 C117.543117,8.98066931 118.561879,8.56484779 119.372743,8.56484779 C119.975694,8.56484779 120.620217,8.76236301 121.306333,9.15739937 L120.16801,10.997428 C119.201211,10.6439744 118.242222,10.9298517 117.291016,11.8550684 C116.33981,12.7802852 115.682292,13.7886523 115.318443,14.8802002 C115.048155,15.8469997 114.913013,17.6610211 114.913013,20.3223187 L114.913013,26.1074933 L112.667555,26.1074933 Z M130.678004,8.19060469 C133.308114,8.19060469 135.491177,9.1417964 137.227258,11.0442084 C138.797008,12.7906849 139.581871,14.8541992 139.581871,17.234813 C139.581871,19.6154269 138.750228,21.6971334 137.086917,23.4799949 C135.423606,25.2628563 133.287323,26.1542737 130.678004,26.1542737 C128.058289,26.1542737 125.919407,25.2628563 124.261294,23.4799949 C122.603181,21.6971334 121.774137,19.6154269 121.774137,17.234813 C121.774137,14.8645949 122.559,12.8062784 124.12875,11.0598018 C125.86483,9.14699417 128.047893,8.19060469 130.678004,8.19060469 Z M130.678004,10.3425025 C128.858758,10.3425025 127.294229,11.0182125 125.984372,12.3696527 C124.674514,13.7210929 124.019595,15.3531923 124.019595,17.266 C124.019595,18.5030875 124.318467,19.6595911 124.916219,20.7355454 C125.513972,21.8114997 126.322225,22.637945 127.341003,23.214906 C128.359781,23.791867 129.472103,24.0803432 130.678004,24.0803432 C131.904696,24.0803432 133.024815,23.791867 134.038395,23.214906 C135.051975,22.637945 135.855031,21.8114997 136.447585,20.7355454 C137.04014,19.6595911 137.336412,18.5030875 137.336412,17.266 C137.336412,15.3531923 136.681494,13.7210929 135.371636,12.3696527 C134.061779,11.0182125 132.49725,10.3425025 130.678004,10.3425025 Z M143.620578,19.6517998 L143.589391,17.8273646 C143.558204,16.933335 143.594588,16.1744607 143.698545,15.5507191 C143.927251,13.585933 144.426236,12.146151 145.195518,11.2313299 C145.944008,10.4308615 146.70808,9.81232699 147.487757,9.37570785 C148.776823,8.82473608 150.247791,8.56484764 151.900707,8.59603472 C153.189773,8.59603472 154.382661,8.92089527 155.479406,9.57062614 C156.576152,10.220357 157.358416,11.0935822 157.826222,12.1903279 C158.294029,13.2870736 158.527928,15.0049362 158.527928,17.3439673 L158.527928,26.1386802 L156.344844,26.1386802 L156.344844,17.9832993 C156.344844,16.0081174 156.261679,14.6878841 156.095348,14.0225597 C155.835456,12.8894291 155.320877,12.0863738 154.551595,11.6133697 C153.782314,11.1403657 152.644003,10.9038672 151.136627,10.9038672 C149.805978,10.9038672 148.620887,11.2885021 147.581317,12.0577834 C146.541748,12.8270648 146.058356,13.8770141 146.131125,15.2076629 C145.933607,16.0601098 145.83485,17.6142427 145.83485,19.8701082 L145.83485,26.1386802 L143.620578,26.1386802 L143.620578,19.6517998 Z M162.348327,2.98238815 L165.045996,2.98238815 L170.581675,11.9954096 L176.164135,2.98238815 L178.84621,2.98238815 L171.9539,14.1784944 L179.282827,26.1074933 L176.600752,26.1074933 L170.581675,16.4083595 L164.547005,26.1074933 L161.849336,26.1074933 L169.225044,14.1784944 L162.348327,2.98238815 Z M185.192749,22.2715015 C185.72293,22.2715015 186.177735,22.4612201 186.557177,22.8406629 C186.93662,23.2201057 187.126339,23.6801083 187.126339,24.2206843 C187.126339,24.7508647 186.93662,25.2056695 186.557177,25.5851123 C186.177735,25.9645551 185.72293,26.1542737 185.192749,26.1542737 C184.652173,26.1542737 184.19477,25.9645551 183.820525,25.5851123 C183.44628,25.2056695 183.25916,24.7508647 183.25916,24.2206843 C183.25916,23.6801083 183.44628,23.2201057 183.820525,22.8406629 C184.19477,22.4612201 184.652173,22.2715015 185.192749,22.2715015 Z M192.428116,2 C192.927109,2 193.355925,2.17672414 193.714577,2.53017773 C194.073228,2.88363132 194.252551,3.30984837 194.252551,3.80884167 C194.252551,4.30783497 194.073228,4.73665091 193.714577,5.09530234 C193.355925,5.45395378 192.927109,5.63327681 192.428116,5.63327681 C191.929123,5.63327681 191.502906,5.45395378 191.149452,5.09530234 C190.795999,4.73665091 190.619275,4.30783497 190.619275,3.80884167 C190.619275,3.30984837 190.795999,2.88363132 191.149452,2.53017773 C191.502906,2.17672414 191.929123,2 192.428116,2 Z M191.336574,9.03265167 L193.535252,9.03265167 L193.535252,26.1386802 L191.336574,26.1386802 L191.336574,9.03265167 Z M206.165957,8.19060469 C208.796067,8.19060469 210.97913,9.1417964 212.715211,11.0442084 C214.284961,12.7906849 215.069824,14.8541992 215.069824,17.234813 C215.069824,19.6154269 214.238181,21.6971334 212.57487,23.4799949 C210.911559,25.2628563 208.775276,26.1542737 206.165957,26.1542737 C203.546242,26.1542737 201.40736,25.2628563 199.749247,23.4799949 C198.091134,21.6971334 197.26209,19.6154269 197.26209,17.234813 C197.26209,14.8645949 198.046953,12.8062784 199.616702,11.0598018 C201.352783,9.14699417 203.535846,8.19060469 206.165957,8.19060469 Z M206.165957,10.3425025 C204.34671,10.3425025 202.782182,11.0182125 201.472325,12.3696527 C200.162467,13.7210929 199.507548,15.3531923 199.507548,17.266 C199.507548,18.5030875 199.80642,19.6595911 200.404172,20.7355454 C201.001925,21.8114997 201.810178,22.637945 202.828956,23.214906 C203.847734,23.791867 204.960056,24.0803432 206.165957,24.0803432 C207.392649,24.0803432 208.512768,23.791867 209.526348,23.214906 C210.539928,22.637945 211.342983,21.8114997 211.935538,20.7355454 C212.528093,19.6595911 212.824365,18.5030875 212.824365,17.266 C212.824365,15.3531923 212.169446,13.7210929 210.859589,12.3696527 C209.549732,11.0182125 207.985203,10.3425025 206.165957,10.3425025 Z" id="positronX.io"></path>
            <g id="Group-5">
                <path d="M27.0500443,17.0002594 C30.2241293,13.6093038 31.5873835,10.2963842 30.3031825,8.18941238 C29.5260437,6.91385897 27.9206293,6.24011231 25.6612217,6.24011231 C24.3986754,6.24011231 22.9640212,6.45217127 21.4297025,6.84395089 C20.1435448,2.66602068 18.0666377,0 15.6801711,0 C13.2937044,0 11.2167539,2.66597747 9.93063956,6.84390766 C8.39640715,6.45217127 6.9618833,6.24011231 5.69946762,6.24011231 C3.44005999,6.24011231 1.83464597,6.91385903 1.05750715,8.18941238 C0.00729134715,9.91251629 0.645630535,12.442871 2.85529258,15.3156331 C3.28712815,15.876887 3.78084092,16.4402161 4.30903613,17.0018158 C1.13612545,20.3921229 -0.22647682,23.7039617 1.05750709,25.8105876 C1.8346459,27.0854492 3.44005992,27.7598877 5.6998154,27.7598877 C5.6998154,27.7598877 5.6998154,27.7598877 5.7001633,27.7598877 C6.96236166,27.7598877 8.39666802,27.5478719 9.93068299,27.1561788 C11.2167974,31.334109 13.2937043,34 15.6801711,34 C18.0666378,34 20.1435448,31.3339793 21.4297025,27.1560491 C22.9640212,27.5478287 24.3986755,27.7598877 25.6612218,27.7598877 C27.9206294,27.7598877 29.5260438,27.0861409 30.3035304,25.8105876 C31.5872531,23.7036591 30.2239554,20.3911286 27.0500443,17.0002594 Z M25.6612217,7.65677898 C26.8707614,7.65677898 28.446259,7.87605795 29.0845982,8.92403157 C29.9302237,10.3116455 28.8059553,13.0122528 26.0439208,15.9818573 C25.0392323,15.0151189 23.8894825,14.0531362 22.6231098,13.117958 C22.4568286,11.357371 22.1804468,9.70793664 21.8092708,8.21383923 C23.2082251,7.85962932 24.517951,7.65677898 25.6612217,7.65677898 Z M18.6342725,21.8462728 C17.6513259,22.4384384 16.6628133,22.9677862 15.6803014,23.4545059 C14.6977896,22.9677862 13.709277,22.4384385 12.7264173,21.8462728 C11.8143054,21.2968216 10.9374587,20.7216034 10.1040086,20.1283137 C10.0256512,19.1271617 9.98068922,18.0848083 9.98068922,17 C9.98068922,15.9171371 10.0255643,14.8766861 10.1036608,13.877177 C10.9230222,13.2926204 11.7948683,12.7150675 12.7264173,12.1537272 C13.709277,11.5615616 14.6977462,11.0322138 15.6802581,10.5455374 C16.6627264,11.0322139 17.6511521,11.5615616 18.6339248,12.1537272 C19.5654738,12.7150675 20.4373199,13.2925771 21.2566813,13.8771337 C21.3347778,14.8766428 21.3796529,15.9171371 21.3796529,17 C21.3796529,18.0830358 21.3347778,19.1236598 21.2566378,20.1233419 C20.4373634,20.7077255 19.5656912,21.2851053 18.6342725,21.8462728 Z M21.0652665,21.9791717 C20.9057687,23.205958 20.6871332,24.3419977 20.427797,25.3907929 C19.4213692,25.073115 18.3815025,24.6812489 17.3181546,24.217097 C18.0042823,23.8540243 18.6905404,23.4689891 19.3724502,23.0581869 C19.9560869,22.7065709 20.5173297,22.3452276 21.0652665,21.9791717 Z M14.0424918,24.217097 C12.9790135,24.6813355 11.9391033,25.0732447 10.9325886,25.3909659 C10.6730785,24.3415655 10.4543125,23.2047908 10.2947712,21.9771399 C10.8464041,22.3457464 11.4079947,22.7086029 11.9882398,23.0581869 C12.6701496,23.468989 13.3563642,23.8540675 14.0424918,24.217097 Z M8.60412898,18.9972026 C7.7797663,18.3454615 7.01441155,17.6791509 6.31180353,17.0055771 C7.00045329,16.3416443 7.76245977,15.6714427 8.6040855,15.0037054 C8.57334255,15.6579107 8.55581875,16.3230541 8.55581875,17 C8.55581875,17.6772919 8.57334255,18.3426946 8.60412898,18.9972026 Z M10.2950321,12.0212174 C10.4545299,10.7942149 10.6731654,9.65800226 10.9325886,8.60907744 C11.9391469,8.92679854 12.9790135,9.31870782 14.0424484,9.78290302 C13.3563208,10.1459325 12.6701496,10.5310109 11.9882398,10.9418131 C11.4044726,11.2935588 10.8430993,11.6550319 10.2950321,12.0212174 Z M17.3181546,9.78290302 C18.3815025,9.31875105 19.4213257,8.92688496 20.427797,8.60920715 C20.6871332,9.65804544 20.9058556,10.7941717 21.06531,12.0210012 C20.5173732,11.6549022 19.9560869,11.2935155 19.3724501,10.9418131 C18.6905403,10.531011 18.0042823,10.1459758 17.3181546,9.78290302 Z M22.7562566,15.0037054 C23.5957074,15.6696701 24.3560615,16.3381424 25.0433632,17.0003459 C24.3560615,17.6625493 23.5957074,18.3309784 22.7562131,18.9969 C22.7869995,18.3424784 22.8045234,17.6771622 22.8045234,17 C22.8045234,16.3230108 22.7869995,15.6579106 22.7562566,15.0037054 Z M15.6801711,1.41666667 C17.2515377,1.41666667 18.923395,3.60240937 20.0481852,7.23560075 C18.6409691,7.67714186 17.169919,8.25629423 15.6803015,8.96021777 C14.190597,8.256251 12.7195035,7.67709857 11.3122003,7.23551427 C12.436947,3.60236616 14.1088043,1.41666667 15.6801711,1.41666667 Z M3.98725756,14.4544271 C2.18494981,12.1122233 1.56122109,10.0965169 2.27574355,8.92403157 C2.91443026,7.8760579 4.48992792,7.65677898 5.69946762,7.65677898 C6.84265139,7.65677898 8.15229031,7.85962932 9.55111477,8.2137527 C9.17989532,9.70793653 8.90355708,11.3574575 8.73723229,13.118131 C7.46738021,14.0559031 6.31506489,15.0206527 5.30837615,15.9900716 C4.82953475,15.4779307 4.37995791,14.9649684 3.98725756,14.4544271 Z M5.7001633,26.343221 L5.69946762,26.343221 C4.48992792,26.343221 2.91443027,26.1232503 2.27574355,25.0759684 C1.43029202,23.6887436 2.55473433,20.9882227 5.3169424,18.0184454 C6.33724146,18.9966405 7.48607804,19.9576289 8.73714532,20.8808747 C8.90342656,22.6419373 9.17985177,24.291804 9.55111477,25.7862905 C8.15250763,26.1403707 6.84312964,26.343221 5.7001633,26.343221 Z M15.6801711,32.5833333 C14.1088044,32.5833333 12.4369905,30.3976339 11.3122003,26.7645289 C12.71946,26.3229447 14.1906405,25.7437922 15.680345,25.0397822 C17.169919,25.7437058 18.640969,26.3228583 20.0481852,26.7643993 C18.923395,30.3975906 17.2515377,32.5833333 15.6801711,32.5833333 Z M29.0849461,25.0759684 C28.446259,26.1239421 26.8707614,26.343221 25.6612217,26.343221 C24.517951,26.343221 23.2082251,26.1403707 21.8092708,25.7861608 C22.1804468,24.2921499 22.456785,22.642802 22.6230663,20.8823446 C23.8893956,19.9472961 25.0391019,18.9854431 26.0437903,18.018748 C28.8058684,20.9883957 29.9303542,23.6888301 29.0849461,25.0759684 Z" id="Shape"></path>
                <path d="M15.6835195,13.5182394 C13.7570981,13.5182394 12.189996,15.0763187 12.189996,16.9916486 C12.189996,18.9069785 13.7570981,20.4650579 15.6835195,20.4650579 C17.6000105,20.4650579 19.177043,18.9069785 19.177043,16.9916486 C19.177043,15.0763187 17.6000105,13.5182394 15.6835195,13.5182394 Z" id="Shape"></path>
            </g>
        </g>
    </g>
</svg>